<?xml version="1.0" encoding="UTF-8"?>
<svg id="Layer_1" data-name="Layer 1" xmlns="http://www.w3.org/2000/svg" viewBox="0 0 905.27 207.1">
  <defs>
    <style>
      .cls-1 {
        fill: #231f20;
      }

      .cls-2 {
        fill: #fff;
      }

      .cls-3 {
        opacity: .3;
      }

      .cls-4 {
        fill: #ed2224;
      }

      .cls-5 {
        fill: #58595b;
      }
    </style>
  </defs>
  <g class="cls-3">
    <g>
      <path class="cls-1" d="M0,207.1l26.81-25.81c11.36-10.93,21.31-21.09,29.99-31.62-11.37-3.12-22.08-9.05-30.84-17.26C11.22,118.58,3.09,99.34,3.09,78.24c0-32.14,14.34-50.5,26.38-60.24C43.8,6.39,63.66,0,85.37,0c23.25,0,43.21,7.81,57.73,22.57,14.59,14.84,22.31,35.42,22.31,59.49,0,53.55-44.77,102.36-64.01,120.86l-4.35,4.19H0ZM84.47,67.58c-11.55,0-11.55,7.58-11.55,10.43,0,8.25,7.09,11.33,11.55,11.33,6.91,0,10.88-3.8,10.88-10.43,0-5.27-1.24-11.33-10.88-11.33Z"/>
      <path class="cls-1" d="M85.6,135.17c-2.92,1.35-6.98,2.02-10.8,2.02-27.23-.22-56.71-22.05-56.71-58.96,0-45.23,33.08-63.24,67.29-63.24,38.71,0,65.04,25.88,65.04,67.06,0,44.56-36.23,87.76-59.41,110.04h-53.78c18-17.33,35.11-35.11,48.38-56.93ZM110.35,78.91c0-17.78-11.7-26.33-25.88-26.33s-26.55,8.55-26.55,25.43,13.73,26.33,26.55,26.33c15.75,0,25.88-11.03,25.88-25.43Z"/>
    </g>
    <g>
      <path class="cls-1" d="M380.33,204.03c-12.8,0-25.48-2.47-37.69-7.33-12.14-4.61-23.11-11.78-33.54-21.93l-.15-.14c-9.4-9.4-16.69-20.44-21.69-32.84-5.12-11.68-7.72-24.65-7.72-38.54s2.52-26.93,7.72-39c5.01-12.2,12.11-22.79,21.69-32.37,9.77-9.77,21.06-17.25,33.55-22.25,12.25-4.9,25.05-7.38,38.06-7.38s25.58,2.48,37.83,7.38c12.23,4.89,23.44,12.38,33.32,22.25l10.61,10.61-49.03,49.03-10.61-10.61c-3.02-3.02-6.41-5.32-10.08-6.84-4.55-1.54-8.68-2.33-12.27-2.33s-7.55.73-11.96,2.29c-3.7,1.52-7.12,3.83-10.16,6.87-2.68,2.68-4.92,6.11-6.87,10.49-1.55,3.76-2.3,7.64-2.3,11.86s.74,8.05,2.26,11.55c1.93,4.38,4.2,7.86,6.9,10.57,3.05,3.05,6.35,5.21,10.09,6.61l.25.09.25.1c3.74,1.56,7.62,2.35,11.53,2.35s7.87-.8,11.96-2.43l.3-.12c3.74-1.4,7.04-3.57,10.09-6.61l10.65-10.65,48.94,49.35-10.56,10.56c-10.01,10.01-20.94,17.22-33.4,22.05-12.22,4.88-25,7.35-37.98,7.35Z"/>
      <path class="cls-1" d="M348.08,182.72c-10.52-3.97-19.87-10.28-28.52-18.7-8.18-8.18-14.26-17.53-18.46-28.05-4.44-10.05-6.54-21.04-6.54-32.72s2.1-22.91,6.54-33.19c4.21-10.28,10.28-19.4,18.46-27.58,8.41-8.41,18-14.73,28.52-18.93,10.52-4.21,21.27-6.31,32.49-6.31s21.74,2.1,32.25,6.31c10.52,4.21,19.87,10.52,28.28,18.93l-27.81,27.81c-4.44-4.44-9.58-7.95-15.43-10.28-6.08-2.1-11.92-3.27-17.53-3.27s-11.45,1.17-17.3,3.27c-5.84,2.34-10.99,5.84-15.43,10.28-4.21,4.21-7.48,9.35-10.05,15.19-2.34,5.61-3.51,11.45-3.51,17.76s1.17,12.15,3.51,17.53c2.57,5.84,5.84,10.99,10.05,15.19,4.67,4.67,9.82,7.95,15.43,10.05,5.61,2.34,11.45,3.51,17.3,3.51s11.69-1.17,17.53-3.51c5.61-2.1,10.75-5.38,15.43-10.05l27.81,28.05c-8.65,8.65-18,14.72-28.28,18.7-10.52,4.21-21.27,6.31-32.49,6.31s-21.74-2.1-32.25-6.31Z"/>
      <polygon class="cls-1" points="419.55 204.26 419.55 2.47 489.06 2.47 489.06 134.76 551.7 134.76 551.7 204.26 419.55 204.26"/>
      <path class="cls-1" d="M474.06,17.47v132.29h62.64v39.5h-102.14V17.47h39.5Z"/>
      <rect class="cls-1" x="529.17" y="2.47" width="69.5" height="201.79"/>
      <path class="cls-1" d="M583.67,17.47v171.79h-39.5V17.47h39.5Z"/>
      <path class="cls-1" d="M662.44,204.03c-12.8,0-25.49-2.47-37.69-7.33-12.14-4.61-23.11-11.78-33.54-21.93l-.15-.14c-9.4-9.4-16.69-20.44-21.69-32.84-5.12-11.69-7.72-24.65-7.72-38.54s2.52-26.93,7.72-39c5.01-12.2,12.11-22.79,21.69-32.37,9.77-9.77,21.06-17.25,33.55-22.25,12.25-4.9,25.05-7.38,38.06-7.38s25.58,2.48,37.83,7.38c12.24,4.9,23.45,12.38,33.32,22.25l10.61,10.61-49.03,49.03-10.61-10.61c-3.02-3.02-6.41-5.32-10.08-6.84-4.55-1.54-8.68-2.33-12.27-2.33s-7.54.73-11.96,2.29c-3.7,1.52-7.12,3.83-10.16,6.87-2.68,2.68-4.92,6.11-6.87,10.49-1.55,3.76-2.3,7.64-2.3,11.86s.74,8.05,2.26,11.55c1.93,4.38,4.2,7.86,6.9,10.57,3.05,3.05,6.35,5.21,10.09,6.61l.25.09.25.1c3.74,1.56,7.62,2.35,11.53,2.35s7.87-.8,11.96-2.43l.3-.12c3.74-1.4,7.04-3.57,10.08-6.61l10.65-10.65,48.94,49.35-10.56,10.56c-10.01,10.01-20.93,17.22-33.4,22.05-12.22,4.88-25,7.35-37.98,7.35Z"/>
      <path class="cls-1" d="M630.18,182.72c-10.52-3.97-19.87-10.28-28.52-18.7-8.18-8.18-14.26-17.53-18.46-28.05-4.44-10.05-6.54-21.04-6.54-32.72s2.1-22.91,6.54-33.19c4.21-10.28,10.28-19.4,18.46-27.58,8.41-8.41,18-14.73,28.52-18.93,10.52-4.21,21.27-6.31,32.49-6.31s21.74,2.1,32.26,6.31c10.52,4.21,19.87,10.52,28.28,18.93l-27.81,27.81c-4.44-4.44-9.58-7.95-15.43-10.28-6.08-2.1-11.92-3.27-17.53-3.27s-11.45,1.17-17.3,3.27c-5.84,2.34-10.99,5.84-15.43,10.28-4.21,4.21-7.48,9.35-10.05,15.19-2.34,5.61-3.51,11.45-3.51,17.76s1.17,12.15,3.51,17.53c2.57,5.84,5.84,10.99,10.05,15.19,4.67,4.67,9.82,7.95,15.43,10.05,5.61,2.34,11.45,3.51,17.3,3.51s11.69-1.17,17.53-3.51c5.61-2.1,10.75-5.38,15.43-10.05l27.81,28.05c-8.65,8.65-18,14.72-28.28,18.7-10.52,4.21-21.27,6.31-32.49,6.31s-21.74-2.1-32.25-6.31Z"/>
      <polygon class="cls-1" points="805.21 204.26 771.16 170.94 771.16 204.26 701.66 204.26 701.66 2.47 771.16 2.47 771.16 36.02 805.44 2.47 905.2 2.47 801.73 103.46 905.27 204.26 805.21 204.26"/>
      <path class="cls-1" d="M811.32,189.26l-55.16-53.99v53.99h-39.5V17.47h39.5v54.23l55.4-54.23h56.8l-88.12,86.01,88.12,85.78h-57.03Z"/>
    </g>
    <g>
      <g>
        <path class="cls-1" d="M223.58,202.21c-54.44,0-98.74-44.29-98.74-98.74S169.14,4.74,223.58,4.74s98.74,44.29,98.74,98.74-44.29,98.74-98.74,98.74Z"/>
        <path class="cls-1" d="M223.58,187.21c-46.17,0-83.74-37.56-83.74-83.74S177.41,19.74,223.58,19.74s83.74,37.56,83.74,83.74-37.56,83.74-83.74,83.74Z"/>
      </g>
      <g>
        <path class="cls-1" d="M223.58,204.71c-55.82,0-101.24-45.42-101.24-101.24S167.76,2.24,223.58,2.24s101.24,45.42,101.24,101.24-45.42,101.24-101.24,101.24ZM223.58,37.24c-36.52,0-66.24,29.71-66.24,66.24s29.71,66.24,66.24,66.24,66.24-29.71,66.24-66.24-29.71-66.24-66.24-66.24Z"/>
        <path class="cls-1" d="M223.58,22.24c44.79,0,81.24,36.44,81.24,81.24s-36.44,81.24-81.24,81.24-81.24-36.44-81.24-81.24S178.79,22.24,223.58,22.24M223.58,17.24c-47.63,0-86.24,38.61-86.24,86.24s38.61,86.24,86.24,86.24,86.24-38.61,86.24-86.24-38.61-86.24-86.24-86.24h0Z"/>
      </g>
    </g>
    <g>
      <path class="cls-1" d="M223.58,181.79c-42.46,0-77-34.54-77-77S181.13,27.79,223.58,27.79s77,34.54,77,77-34.54,77-77,77ZM223.58,66.79c-20.95,0-38,17.05-38,38s17.05,38,38,38,38-17.05,38-38-17.05-38-38-38Z"/>
      <path class="cls-1" d="M223.58,166.79c-34.19,0-62-27.81-62-62s27.81-62,62-62,62,27.81,62,62-27.81,62-62,62ZM223.58,51.79c-29.22,0-53,23.78-53,53s23.78,53,53,53,53-23.78,53-53-23.78-53-53-53Z"/>
    </g>
  </g>
  <g>
    <path class="cls-2" d="M85.6,135.17c-2.92,1.35-6.98,2.02-10.8,2.02-27.23-.22-56.71-22.05-56.71-58.96,0-45.23,33.08-63.24,67.29-63.24,38.71,0,65.04,25.88,65.04,67.06,0,44.56-36.23,87.76-59.41,110.04h-53.78c18-17.33,35.11-35.11,48.38-56.93ZM110.35,78.91c0-17.78-11.7-26.33-25.88-26.33s-26.55,8.55-26.55,25.43,13.73,26.33,26.55,26.33c15.75,0,25.88-11.03,25.88-25.43Z"/>
    <g>
      <path class="cls-2" d="M348.08,182.72c-10.52-3.97-19.87-10.28-28.52-18.7-8.18-8.18-14.26-17.53-18.46-28.05-4.44-10.05-6.54-21.04-6.54-32.72s2.1-22.91,6.54-33.19c4.21-10.28,10.28-19.4,18.46-27.58,8.41-8.41,18-14.73,28.52-18.93,10.52-4.21,21.27-6.31,32.49-6.31s21.74,2.1,32.25,6.31c10.52,4.21,19.87,10.52,28.28,18.93l-27.81,27.81c-4.44-4.44-9.58-7.95-15.43-10.28-6.08-2.1-11.92-3.27-17.53-3.27s-11.45,1.17-17.3,3.27c-5.84,2.34-10.99,5.84-15.43,10.28-4.21,4.21-7.48,9.35-10.05,15.19-2.34,5.61-3.51,11.45-3.51,17.76s1.17,12.15,3.51,17.53c2.57,5.84,5.84,10.99,10.05,15.19,4.67,4.67,9.82,7.95,15.43,10.05,5.61,2.34,11.45,3.51,17.3,3.51s11.69-1.17,17.53-3.51c5.61-2.1,10.75-5.38,15.43-10.05l27.81,28.05c-8.65,8.65-18,14.72-28.28,18.7-10.52,4.21-21.27,6.31-32.49,6.31s-21.74-2.1-32.25-6.31Z"/>
      <path class="cls-2" d="M474.06,17.47v132.29h62.64v39.5h-102.14V17.47h39.5Z"/>
      <path class="cls-2" d="M583.67,17.47v171.79h-39.5V17.47h39.5Z"/>
      <path class="cls-2" d="M630.18,182.72c-10.52-3.97-19.87-10.28-28.52-18.7-8.18-8.18-14.26-17.53-18.46-28.05-4.44-10.05-6.54-21.04-6.54-32.72s2.1-22.91,6.54-33.19c4.21-10.28,10.28-19.4,18.46-27.58,8.41-8.41,18-14.73,28.52-18.93,10.52-4.21,21.27-6.31,32.49-6.31s21.74,2.1,32.26,6.31c10.52,4.21,19.87,10.52,28.28,18.93l-27.81,27.81c-4.44-4.44-9.58-7.95-15.43-10.28-6.08-2.1-11.92-3.27-17.53-3.27s-11.45,1.17-17.3,3.27c-5.84,2.34-10.99,5.84-15.43,10.28-4.21,4.21-7.48,9.35-10.05,15.19-2.34,5.61-3.51,11.45-3.51,17.76s1.17,12.15,3.51,17.53c2.57,5.84,5.84,10.99,10.05,15.19,4.67,4.67,9.82,7.95,15.43,10.05,5.61,2.34,11.45,3.51,17.3,3.51s11.69-1.17,17.53-3.51c5.61-2.1,10.75-5.38,15.43-10.05l27.81,28.05c-8.65,8.65-18,14.72-28.28,18.7-10.52,4.21-21.27,6.31-32.49,6.31s-21.74-2.1-32.25-6.31Z"/>
      <path class="cls-2" d="M811.32,189.26l-55.16-53.99v53.99h-39.5V17.47h39.5v54.23l55.4-54.23h56.8l-88.12,86.01,88.12,85.78h-57.03Z"/>
    </g>
    <g>
      <path class="cls-1" d="M223.58,187.21c-46.17,0-83.74-37.56-83.74-83.74S177.41,19.74,223.58,19.74s83.74,37.56,83.74,83.74-37.56,83.74-83.74,83.74Z"/>
      <path class="cls-5" d="M223.58,22.24c44.79,0,81.24,36.44,81.24,81.24s-36.44,81.24-81.24,81.24-81.24-36.44-81.24-81.24S178.79,22.24,223.58,22.24M223.58,17.24c-47.63,0-86.24,38.61-86.24,86.24s38.61,86.24,86.24,86.24,86.24-38.61,86.24-86.24-38.61-86.24-86.24-86.24h0Z"/>
    </g>
    <path class="cls-4" d="M223.58,166.79c-34.19,0-62-27.81-62-62s27.81-62,62-62,62,27.81,62,62-27.81,62-62,62ZM223.58,51.79c-29.22,0-53,23.78-53,53s23.78,53,53,53,53-23.78,53-53-23.78-53-53-53Z"/>
  </g>
</svg>